<svg id="img" width="100%" height="100%" viewBox="0 0 1282 722" xmlns="http://www.w3.org/2000/svg" xmlns:xlink="http://www.w3.org/1999/xlink">
  <defs>
    <clipPath id="clip0">
      <rect x="304" y="256" width="206" height="206" />
    </clipPath>
    <clipPath id="clip1">
      <rect x="304" y="256" width="206" height="206" />
    </clipPath>
    <clipPath id="clip2">
      <rect x="304" y="256" width="206" height="206" />
    </clipPath>
  </defs>
  <g transform="translate(1 1)"><text opacity=".05" font-weight="400" font-size="221" transform="translate(133.333 430)">@CivilT_T</text>
    <path
      d="M150 243.5C150 263.106 134.106 279 114.5 279 94.894 279 79 263.106 79 243.5 79 223.894 94.894 208 114.5 208 134.106 208 150 223.894 150 243.5Z"
      fill="#ED7D31" fill-rule="evenodd" />
    <path
      d="M186 359 186 323.5C186 318.175 183.338 312.85 178.9 309.3 169.137 301.312 156.713 295.988 144.288 292.438 135.412 289.775 125.65 288 115 288 105.238 288 95.475 289.775 85.7125 292.438 73.2875 295.988 60.8625 302.2 51.1 309.3 46.6625 312.85 44 318.175 44 323.5L44 359 186 359Z"
      fill="#ED7D31" fill-rule="evenodd" /><text fill="#C55A11"
      font-family="HGSSoeiKakugothicUB,HGSSoeiKakugothicUB_MSFontService,sans-serif" font-weight="400" font-size="32"
      transform="translate(66.909 417)">外部の</text><text fill="#C55A11"
      font-family="HGSSoeiKakugothicUB,HGSSoeiKakugothicUB_MSFontService,sans-serif" font-weight="400" font-size="32"
      transform="translate(34.909 455)">プレイヤー</text><text fill="#C55A11"
      font-family="HGSSoeiKakugothicUB,HGSSoeiKakugothicUB_MSFontService,sans-serif" font-weight="400" font-size="32"
      transform="translate(18.909 494)">（友人など）</text>
    <path d="M221.5 341.25 614.964 341.25 614.964 323.5 679.5 359 614.964 394.5 614.964 376.75 221.5 376.75Z"
      stroke="#2F528F" stroke-width="1.33333" stroke-miterlimit="8" fill="#BDD7EE" fill-rule="evenodd" />
    <g clip-path="url(#clip0)">
      <g clip-path="url(#clip1)">
        <g clip-path="url(#clip2)">
          <path
            d="M417.974 439.028C416.068 440.58 414.151 441.799 412.223 442.72 410.913 442.86 409.594 442.963 408.269 443.04L408.269 427.67C405.099 425.076 401.911 422.382 398.713 419.614L398.713 443.043C397.388 442.963 396.069 442.86 394.763 442.72 392.834 441.799 390.915 440.579 389.008 439.027 382.793 433.969 376.976 425.431 372.515 414.441L392.828 414.441C389.366 411.346 385.9 408.157 382.435 404.885L369.174 404.885C367.591 399.619 366.316 393.939 365.345 387.982 361.572 384.078 357.908 380.164 354.349 376.258 355.148 386.429 356.788 396.079 359.229 404.885L334.82 404.885C327.986 393.839 323.749 381.036 322.947 367.281L346.379 367.281C343.611 364.083 340.917 360.894 338.326 357.725L322.947 357.725C323.277 352.088 324.213 346.626 325.635 341.365 322.39 336.939 319.348 332.578 316.542 328.307 312.371 338.902 310.054 350.43 310.054 362.506 310.056 414.111 351.883 455.934 403.488 455.937 415.561 455.937 427.089 453.62 437.68 449.452 431.991 445.71 426.137 441.55 420.183 437.043 419.452 437.749 418.718 438.421 417.974 439.028ZM346.43 419.565C344.793 417.928 343.238 416.211 341.748 414.441L362.331 414.441C363.864 418.622 365.551 422.604 367.438 426.262 369.663 430.561 372.126 434.471 374.817 437.936 364.073 433.852 354.424 427.553 346.43 419.565Z"
            fill="#1F4E79" />
          <path
            d="M335.561 298.386C337.601 302.041 339.922 305.849 342.476 309.771 343.751 308.29 345.045 306.828 346.429 305.444 354.439 297.44 364.11 291.129 374.879 287.044 369.874 293.471 365.665 301.444 362.315 310.564L342.983 310.564C345.029 313.681 347.235 316.873 349.571 320.12L359.255 320.12C358.374 323.29 357.618 326.587 356.937 329.959 359.497 333.25 362.176 336.578 364.963 339.932 365.968 332.908 367.38 326.235 369.222 320.12L398.713 320.12 398.713 357.724 380.56 357.724C383.512 360.919 386.535 364.107 389.63 367.28L398.713 367.28 398.713 376.364C401.886 379.456 405.075 382.485 408.269 385.434L408.269 367.28 443.575 367.28C443.184 380.998 441.103 393.802 437.765 404.885L430.769 404.885C435.36 408.583 439.892 412.064 444.325 415.296 444.434 415.003 444.562 414.736 444.671 414.441L465.235 414.441C463.742 416.21 462.19 417.928 460.554 419.564 459.172 420.945 457.723 422.258 456.242 423.533 460.158 426.084 463.959 428.398 467.605 430.439 485.65 413.405 496.929 389.278 496.929 362.505 496.926 310.9 455.097 269.071 403.488 269.068 376.715 269.071 352.595 280.347 335.561 298.386ZM472.162 404.886 447.728 404.886C450.882 393.516 452.792 380.793 453.162 367.281L484.036 367.281C483.233 381.036 478.996 393.839 472.162 404.886ZM472.156 320.12C478.993 331.166 483.23 343.972 484.035 357.725L453.131 357.725C452.757 344.224 450.904 331.483 447.749 320.12L472.156 320.12ZM460.55 305.444C462.186 307.08 463.738 308.794 465.228 310.564L444.651 310.564C443.118 306.387 441.429 302.405 439.544 298.747 437.319 294.451 434.856 290.541 432.168 287.073 442.909 291.157 452.556 297.459 460.55 305.444ZM408.269 281.965C409.597 282.046 410.916 282.148 412.226 282.288 414.154 283.206 416.067 284.426 417.974 285.977 424.189 291.032 430.003 299.574 434.464 310.564L408.269 310.564 408.269 281.965ZM408.269 320.12 437.805 320.12C441.142 331.2 443.211 344.019 443.606 357.725L408.269 357.725 408.269 320.12ZM389.008 285.977C390.915 284.425 392.828 283.206 394.757 282.285 396.066 282.145 397.385 282.043 398.713 281.962L398.713 310.564 372.568 310.564C373.622 307.96 374.73 305.447 375.927 303.133 379.766 295.692 384.283 289.838 389.008 285.977Z"
            fill="#1F4E79" />
          <path
            d="M506.401 426.694C504.466 421.477 501.779 415.838 498.488 409.859 496.239 414.345 493.688 418.659 490.851 422.759 492.291 425.736 493.498 428.535 494.453 431.117 496.397 436.328 497.274 440.673 497.259 443.579 497.259 444.957 497.075 445.992 496.835 446.69 496.593 447.389 496.338 447.753 496.046 448.055 495.75 448.341 495.389 448.593 494.686 448.839 493.992 449.075 492.957 449.259 491.578 449.259 488.835 449.271 484.804 448.497 479.979 446.77 475.145 445.056 469.505 442.434 463.318 438.994 442.107 427.204 414.556 405.797 387.391 378.613 360.207 351.448 338.799 323.896 327.006 302.682 323.566 296.494 320.947 290.858 319.23 286.024 317.507 281.199 316.729 277.168 316.741 274.424 316.741 273.043 316.928 272.007 317.165 271.316 317.407 270.614 317.66 270.256 317.948 269.957 318.253 269.662 318.614 269.406 319.317 269.164 320.011 268.928 321.047 268.741 322.431 268.741 325.333 268.726 329.679 269.603 334.88 271.541 337.471 272.499 340.283 273.712 343.276 275.155 347.376 272.318 351.681 269.768 356.169 267.519 350.178 264.218 344.526 261.527 339.3 259.593 333.185 257.343 327.632 256.018 322.431 256 319.958 256.003 317.544 256.314 315.229 257.095 312.922 257.872 310.719 259.16 308.937 260.952 307.151 262.728 305.866 264.928 305.095 267.233 304.314 269.544 304.003 271.955 304 274.425 304.016 279.34 305.201 284.562 307.226 290.289 309.26 296.009 312.174 302.218 315.873 308.875 328.546 331.617 350.52 359.747 378.382 387.621 406.256 415.483 434.386 437.457 457.125 450.13 463.785 453.828 469.994 456.743 475.714 458.778 481.441 460.8 486.664 461.985 491.578 462 494.048 462 496.459 461.686 498.771 460.908 501.072 460.134 503.272 458.852 505.051 457.067 506.843 455.281 508.13 453.079 508.905 450.777 509.686 448.463 509.997 446.049 510 443.579 509.982 438.372 508.656 432.816 506.401 426.694Z"
            fill="#1F4E79" />
        </g>
      </g>
    </g>
    <path d="M644.653 656.5 644.653 267.045 550.5 267.045 893.5 47.5001 1236.5 267.045 1142.35 267.045 1142.35 656.5Z"
      stroke="#70AD47" stroke-width="3" stroke-miterlimit="8" fill="none" fill-rule="evenodd" />
    <g>
      <g>
        <g>
          <path
            d="M141.152 59.7615 116.174 39.2584C111.545 35.4595 105.736 33.3794 99.7418 33.3794L75 33.3794 50.2567 33.3794C44.2649 33.3794 38.456 35.4595 33.8256 39.2584L8.84766 59.7615C3.49746 63.6331 0.00351563 69.9135 0 77.0262L0 95.3016C0.0046875 107.079 9.54463 116.619 21.3193 116.621L75 116.621 128.681 116.621C140.455 116.619 149.998 107.079 150 95.3016L150 77.0262C149.998 69.9135 146.504 63.6331 141.152 59.7615ZM12.1828 77.0262C12.1852 74.4841 13.1959 72.2376 14.8597 70.568 16.5305 68.9051 18.7772 67.892 21.3193 67.8899L75 67.8899 128.681 67.8899C131.223 67.8923 133.469 68.9054 135.141 70.568 136.804 72.2376 137.815 74.4841 137.817 77.0262L137.817 95.3016C137.815 97.8437 136.804 100.09 135.141 101.762 133.469 103.425 131.223 104.436 128.681 104.438L75 104.438 21.3193 104.438C18.7772 104.436 16.5305 103.425 14.8597 101.762 13.1959 100.09 12.1852 97.8437 12.1828 95.3016L12.1828 77.0262Z"
            fill="#4B4B4B" transform="matrix(1 0 0 1.00667 687 279)" />
          <path
            d="M95.557 93.5871C99.3434 93.5871 102.41 90.5174 102.41 86.7346 102.41 82.9518 99.3431 79.8823 95.557 79.8823 91.7722 79.8823 88.7033 82.952 88.7033 86.7346 88.7036 90.5174 91.7722 93.5871 95.557 93.5871Z"
            fill="#4B4B4B" transform="matrix(1 0 0 1.00667 687 279)" />
          <path
            d="M118.529 93.5871C122.312 93.5871 125.381 90.5174 125.381 86.7346 125.381 82.9518 122.312 79.8823 118.529 79.8823 114.744 79.8823 111.674 82.952 111.674 86.7346 111.674 90.5174 114.744 93.5871 118.529 93.5871Z"
            fill="#4B4B4B" transform="matrix(1 0 0 1.00667 687 279)" />
        </g>
      </g>
    </g><text font-family="HGSSoeiKakugothicUB,HGSSoeiKakugothicUB_MSFontService,sans-serif" font-weight="400"
      font-size="32" transform="translate(697.772 265)">ルーター</text>
    <path d="M845.5 341.25 934.225 341.25 934.225 323.5 976.5 359 934.225 394.5 934.225 376.75 845.5 376.75Z"
      stroke="#2F528F" stroke-width="1.33333" stroke-miterlimit="8" fill="#BDD7EE" fill-rule="evenodd" />
    <g>
      <g>
        <g>
          <path
            d="M1082.73 312.881 1048.5 295 1014.26 312.881 991.025 306.495C991.025 306.495 991.025 343.535 991.025 370.357 991.025 397.178 1035.73 424 1048.5 424 1061.27 424 1105.98 397.178 1105.98 370.356 1105.98 343.534 1105.98 306.495 1105.98 306.495L1082.73 312.881ZM1090.65 370.356C1090.65 385.254 1059.05 406.845 1048.5 408.628 1037.96 406.845 1006.35 385.254 1006.35 370.356L1006.35 326.601 1016.02 329.258 1048.5 312.292 1080.98 329.258 1090.65 326.601 1090.65 370.356Z"
            fill="#4B4B4B" />
          <path
            d="M1014.01 336.654 1014.01 370.356C1014.01 378.035 1032.8 393.494 1044.31 399.084L1044.31 323.126 1016.89 337.445 1014.01 336.654Z"
            fill="#4B4B4B" />
          <path
            d="M1052.69 323.129 1052.69 399.084C1064.2 393.494 1082.99 378.035 1082.99 370.356L1082.99 336.654 1080.1 337.445 1052.69 323.129Z"
            fill="#4B4B4B" />
        </g>
      </g>
    </g><text font-family="HGSSoeiKakugothicUB,HGSSoeiKakugothicUB_MSFontService,sans-serif" font-weight="400"
      font-size="32" transform="translate(952.285 246)">セキュリティ</text><text
      font-family="HGSSoeiKakugothicUB,HGSSoeiKakugothicUB_MSFontService,sans-serif" font-weight="400" font-size="32"
      transform="translate(1000.28 284)">ソフト</text>
    <path d="M1066.75 430.5 1066.75 456.699 1084.5 456.699 1049 474.5 1013.5 456.699 1031.25 456.699 1031.25 430.5Z"
      stroke="#2F528F" stroke-width="1.33333" stroke-miterlimit="8" fill="#BDD7EE" fill-rule="evenodd" />
    <g>
      <g>
        <g>
          <path
            d="M1099.79 500.887C1098.32 497.488 1095.77 494.561 1092.53 492.037 1087.66 488.255 1081.17 485.303 1073.57 483.229 1065.97 481.162 1057.27 480 1048 480 1033.88 480.009 1021.07 482.678 1011.48 487.204 1006.68 489.479 1002.67 492.222 999.718 495.51 998.247 497.156 997.047 498.949 996.206 500.887 995.367 502.825 994.899 504.916 994.901 507.054L994.901 582.944C994.899 585.082 995.367 587.175 996.206 589.111 997.683 592.51 1000.23 595.437 1003.47 597.963 1008.34 601.745 1014.83 604.697 1022.43 606.772 1030.03 608.838 1038.73 609.998 1048 610 1062.13 609.988 1074.93 607.322 1084.52 602.793 1089.32 600.519 1093.33 597.778 1096.28 594.488 1097.75 592.844 1098.95 591.051 1099.79 589.111 1100.63 587.175 1101.1 585.082 1101.1 582.943L1101.1 507.054C1101.1 504.915 1100.63 502.825 1099.79 500.887ZM1093.77 582.944C1093.77 584.034 1093.55 585.096 1093.07 586.205 1092.24 588.134 1090.57 590.208 1088.03 592.183 1084.23 595.154 1078.54 597.834 1071.65 599.705 1064.75 601.581 1056.65 602.678 1048 602.676 1034.82 602.688 1022.91 600.115 1014.61 596.174 1010.46 594.215 1007.23 591.915 1005.18 589.608 1004.15 588.456 1003.41 587.308 1002.93 586.204 1002.45 585.096 1002.23 584.034 1002.23 582.943L1002.23 570.411C1006.46 574.283 1012.41 577.375 1019.52 579.662 1027.73 582.282 1037.5 583.787 1048 583.789 1062.01 583.782 1074.7 581.125 1084.13 576.672 1087.92 574.875 1091.16 572.771 1093.77 570.376L1093.77 582.944ZM1093.77 561.554C1093.25 562.672 1092.51 563.792 1091.5 564.924 1088.26 568.579 1082.39 572.02 1074.81 574.43 1067.23 576.855 1057.97 578.297 1048 578.295 1034.7 578.302 1022.68 575.721 1014.22 571.706 1009.99 569.708 1006.66 567.355 1004.5 564.924 1003.49 563.792 1002.75 562.672 1002.23 561.557L1002.23 545.115C1006.46 548.987 1012.41 552.08 1019.52 554.366 1027.73 556.984 1037.5 558.489 1048 558.492 1062.01 558.484 1074.7 555.828 1084.13 551.375 1087.92 549.577 1091.16 547.475 1093.77 545.081L1093.77 561.554ZM1093.77 536.259C1093.25 537.376 1092.51 538.496 1091.5 539.626 1088.26 543.281 1082.39 546.724 1074.81 549.132 1067.23 551.557 1057.97 552.999 1048 552.997 1034.7 553.004 1022.68 550.423 1014.22 546.41 1009.99 544.412 1006.66 542.057 1004.5 539.626 1003.49 538.496 1002.75 537.376 1002.23 536.259L1002.23 519.817C1006.46 523.691 1012.41 526.782 1019.52 529.07 1027.73 531.69 1037.5 533.195 1048 533.195 1062.01 533.189 1074.7 530.533 1084.13 526.079 1087.92 524.281 1091.16 522.179 1093.77 519.785L1093.77 536.259ZM1093.77 510.96C1093.25 512.078 1092.51 513.201 1091.5 514.33 1088.26 517.987 1082.39 521.428 1074.81 523.839 1067.23 526.263 1057.97 527.706 1048 527.704 1034.7 527.711 1022.68 525.129 1014.22 521.115 1009.99 519.115 1006.66 516.761 1004.5 514.33 1003.49 513.201 1002.75 512.078 1002.23 510.963L1002.23 507.054C1002.23 505.964 1002.45 504.904 1002.93 503.795 1003.76 501.864 1005.43 499.792 1007.97 497.815 1011.77 494.844 1017.46 492.164 1024.35 490.295 1031.25 488.416 1039.35 487.322 1048 487.324 1061.18 487.312 1073.09 489.885 1081.39 493.826 1085.54 495.782 1088.77 498.082 1090.82 500.392 1091.85 501.544 1092.59 502.69 1093.07 503.796 1093.55 504.904 1093.77 505.964 1093.77 507.054L1093.77 510.96Z"
            fill="#4B4B4B" />
        </g>
      </g>
    </g><text font-family="HGSSoeiKakugothicUB,HGSSoeiKakugothicUB_MSFontService,sans-serif" font-weight="400"
      font-size="32" transform="translate(984.284 644)">サーバー</text>
    <path
      d="M794 483C794 500.121 779.897 514 762.5 514 745.103 514 731 500.121 731 483 731 465.879 745.103 452 762.5 452 779.897 452 794 465.879 794 483Z"
      fill="#70AD47" fill-rule="evenodd" />
    <path
      d="M825 585 825 553.5C825 548.775 822.656 544.05 818.75 540.9 810.156 533.812 799.219 529.088 788.281 525.938 780.469 523.575 771.875 522 762.5 522 753.906 522 745.312 523.575 736.719 525.938 725.781 529.088 714.844 534.6 706.25 540.9 702.344 544.05 700 548.775 700 553.5L700 585 825 585Z"
      fill="#70AD47" fill-rule="evenodd" /><text fill="#548235"
      font-family="HGSSoeiKakugothicUB,HGSSoeiKakugothicUB_MSFontService,sans-serif" font-weight="400" font-size="32"
      transform="translate(714.43 640)">管理者</text>
    <path d="M847 532.75 935.725 532.75 935.725 515 978 550.5 935.725 586 935.725 568.25 847 568.25Z" stroke="#2F528F"
      stroke-width="6" stroke-miterlimit="8" fill="none" fill-rule="evenodd" />
  </g>
</svg>